Patient4_TMGait_0pt4_01_left_14_EMG.mot
version=1
nRows=16
nColumns=33
inDegrees=no
endheader
time	1LAddLong	2LGlutMax	3LGlutMed	4LIliopsoas	5LSemiMemb	6LBicFemLong	7LRecFem	8LVastMed	9LVastLat	10LGasMed	11LTibAnt	12lTibPost	13LPeroneusLong	14LSol	15LExtDigLong	16LFlexDigLong	17RAddLong	18RGlutMax	19RGlutMed	20RIliopsoas	21RSemiMemb	22RBicFemLong	23RRecFem	24RVastMed	25RVastLat	26RGasMed	27RTibAnt	28RTibPost	29RPeroneusLong	30RSol	31RExtDigLong	32RFlexDigLong
18.27	0.0177	-0.019379	0.04364	-0.024719	0.079041	0.11139	0.01236	-0.012207	0.034637	-0.065613	-0.18234	-0.00824	0.13321	0.063171	-0.21545	-0.00061	-0.00824	-0.016174	0.72311	-0.079956	-0.14679	-0.21316	0.1915	0.031891	-0.33356	0.007172	-0.094147	-0.005798	-0.21729	0.021515	-0.001221	-0.006409
18.271	0.009613	-0.028839	0.004272	-0.010681	0.082245	0.052643	0.052795	-0.005035	0.024872	-0.007324	-0.16357	0.004578	0.070496	0.050659	-0.38345	0.004425	-0.005798	-0.13336	1.2473	-0.11932	-0.12116	-0.23987	0.14893	-0.019989	-0.33539	0.007782	-0.089111	-0.007477	0.10117	-0.013428	-0.002747	-0.001984
18.272	-0.006104	-0.079956	-0.032959	0.001373	0.023499	0.03067	0.049591	0.004578	0.024261	0.064087	-0.11459	0.002899	-0.17685	0.11734	-0.1088	-0.010223	0.000763	-0.15457	0.70419	-0.01236	-0.11047	-0.28473	0.13672	-0.027008	-0.26932	0.006256	0.1001	-0.002899	0.045624	-0.02243	-0.003357	0.001526
18.273	-0.017395	-0.05249	-0.013885	0.00473	-0.006256	-0.011444	0.068512	0.00824	0.032501	0.12543	-0.045929	0.004272	-0.030365	0.13321	-0.13458	0.004578	-0.001526	-0.07309	0.088501	0.038757	-0.12192	-0.21378	0.15701	-0.10498	-0.12711	0.005798	0.16586	-0.00412	-0.031586	0.029449	-0.002289	-0.015259
18.274	-0.008698	-0.091705	-0.021973	0.005188	-0.02533	-0.052338	0.064392	0.006866	0.019073	0.15625	0.005188	0.003204	0.061035	0.092926	-0.12131	-0.00351	0.001984	0.016022	0.1001	-0.035858	-0.13367	-0.1004	0.19791	-0.074615	-0.035858	0.004883	0.048218	0.00885	0.16556	-0.001221	-0.00061	-0.010681
18.275	-0.006561	-0.062408	-0.027466	-0.000153	0.007477	0.009918	0.06546	0.005951	0.03006	0.020905	0.005188	0.004883	0.063629	-0.027466	0.20523	0.00351	0.042419	0.032654	0.26504	-0.007935	-0.1413	0.006561	0.15823	-0.032959	-0.085449	0.007324	-0.033569	-0.001678	0.16281	0.003967	-0.002594	-0.006409
18.276	0.01297	-0.046692	-0.042725	-0.006104	0.097961	0.017853	0.085144	0.002899	0.02243	-0.012665	-0.014496	0.011597	0.005798	-0.16235	0.15915	0.013275	0.073853	0.034943	0.0177	0.078735	-0.12451	-0.009766	0.022125	-0.13031	-0.12558	-0.001678	0.04364	-0.001526	-0.16876	-0.033722	-0.001373	-0.009308
18.277	0.007782	-0.030365	-0.002136	-0.001373	0.017395	0.059509	0.112	0.001068	0.014801	0.06958	0.010834	0.005646	-0.071564	-0.22675	0.19486	0	0.058289	0.11398	-0.011749	0.073395	-0.13977	-0.112	0.002899	-0.19531	-0.002747	-0.001831	0.01709	-0.001068	-0.067139	-0.023346	-0.002747	-0.00061
18.278	0.007172	-0.005035	-0.020294	0.008087	-0.11078	0.061035	0.08728	-0.000153	0.027161	0.055389	0.015259	0.006256	-0.11917	-0.17197	0.016327	-0.006409	0.066528	0.054321	0.099335	0.090332	-0.22186	-0.30243	0.14374	-0.15701	-0.089569	0.002747	-0.042114	-0.002594	-0.017853	0.030365	0.002747	-0.000916
18.279	-0.000153	-0.009308	-0.028992	0.010986	-0.12192	0.057373	0.046387	0.006256	0.041046	-0.030212	0.07843	0.005188	-0.074615	-0.023193	-0.32394	0.000305	0.027161	0.0914	-0.30365	0.10117	-0.26825	-0.34088	0.26077	-0.083313	-0.11231	0.004578	-0.065155	-0.004425	0.026855	0.042725	0.00061	0.005341
18.28	0.016785	-0.019379	-0.014191	0.001373	-0.021362	-0.031128	0.037842	-0.004883	0.050964	-0.096741	0.085144	0.003052	0.007019	0.024414	-0.14603	0.006561	-0.013123	0.081329	-0.24735	0.075226	-0.38574	-0.32166	0.2742	0.037231	0.33325	0	0.059357	0	0.23529	0.079651	0.000305	-0.007935
18.281	0.023499	-0.027924	-0.019226	0.007477	0.072784	-0.054016	0.062103	-0.004425	0.053864	-0.13199	0.018616	0.003052	0.035553	0.065613	-0.045319	0.006561	-0.035858	0.088348	-0.07843	0.024719	-0.53604	-0.13412	-0.010223	-0.042572	0.5864	0.00351	0.23804	0.000305	0.32257	0.045471	0.011444	-0.00824
18.282	0.010223	-0.022736	-0.018311	-0.007019	0.060883	-0.005188	0.090485	-0.00061	0.040131	-0.11276	0.013123	0.000458	-0.021057	0.049133	-0.1239	0.010681	-0.003204	0.07782	0.027466	0.011749	-0.59479	-0.065765	-0.5188	0.029602	0.50812	0.000305	0.098114	-0.002747	0.065155	0.048828	-0.001068	-0.00473
18.283	-0.008087	-0.008698	-0.040741	0.010071	0.03479	0.007172	0.12146	-0.001984	0.029297	-0.098114	0.003815	-0.00412	-0.016479	-0.04837	-0.1387	-0.001984	0.063629	-0.020447	-0.029297	-0.019836	-0.39902	-0.28702	-0.61371	-0.033264	0.2803	-0.010681	-0.033569	-0.00824	0.08728	0.10819	-0.001373	0.00061
18.284	0.001984	-0.007935	-0.04776	0.015564	-0.061035	0.03891	0.11398	0.000458	0.035248	-0.028839	-0.023956	0.000153	0.072784	-0.071259	-0.097046	-0.008545	0.12604	-0.026245	-0.088043	-0.00946	-0.20355	-0.27374	-0.38589	-0.13901	0.028229	-0.006409	-0.008545	-0.000763	-0.085297	0.0383	-0.00351	-0.005646
18.285	-0.005646	-0.000153	-0.046234	0.013733	-0.11932	0.13184	0.13428	-0.007629	0.042419	0.078278	-0.016785	0.002747	0.12314	-0.065308	-0.057373	0.00412	0.068512	-0.036011	-0.11765	0.005493	-0.52551	-0.37476	-0.092468	-0.12543	0.018158	0.007324	-0.032959	-0.011139	0.087738	-0.091248	-0.000916	-0.00061
